<svg xmlns="http://www.w3.org/2000/svg" version="1.0" class="d-none d-md-inline-flex" width="300" height="262">
  <path d="M7 96.2v96.2l68-68.1c37.4-37.5 68-68.5 68-69C143 54.3 88.6 0 87.7 0c-2.7 0 2.4 5.8 24.8 28.3 14 14 25.5 26.3 25.5 27.2 0 .9-28.6 30.3-63.6 65.3C25 170.3 10.7 184.1 10 183c-.6-.9-1-35.3-1-83.5V8.7C9 3.6 8.6 0 8 0c-.7 0-1 32.7-1 96.2zM172.3 27.2c-15 15-27.3 27.7-27.3 28.2C145 56.5 278.1 190 279.3 190c2.6 0-8.2-11.4-66.1-69.4C177.9 85.3 149 55.9 149 55.4s11.1-11.9 24.6-25.4c25-25 29.6-30 27.3-30-.7 0-13.6 12.3-28.6 27.2z"/>
  <path d="M280.9 95.2c-.1 52.4-.2 95.7-.3 96.3 0 .5-15.7 16.6-34.8 35.7-25.6 25.7-34.1 34.8-32.5 34.8 1.2 0 3.1-.7 4.2-1.5 4.4-3.3 64.8-64.1 65.5-66 .5-1.5.7-190.2.1-193.8 0-.4-.5-.7-1.1-.7-.7 0-1 32.5-1.1 95.2zM101.3 129.6l-1.7 5.6-3.6-.5c-1.9-.3-5.1-.9-7-1.3l-3.5-.7 4.4 5.2 4.5 5.3-4.9 4.4c-2.6 2.5-4.5 4.7-4.2 5 .3.4 3.3-.3 6.7-1.4l6.1-2.1.9 2.5c.6 1.4 1.3 4.3 1.6 6.5.4 2.2 1 4.2 1.4 4.4.5.3 1.7-2.3 2.8-5.7 2.1-6.9 1.9-6.7 10-4.5 2.8.9 5.2 1.3 5.2 1 0-.2-1.9-2.7-4.1-5.4l-4.2-4.9 4.2-4.6c2.4-2.5 4.1-4.8 3.8-5-.2-.2-3.1.2-6.5 1-3.3.8-6.3 1.1-6.6.8-.3-.3-.9-2.7-1.2-5.4-.4-2.7-1-5.1-1.5-5.3-.4-.3-1.6 2-2.6 5.1zm4.4 6.4c1.4 1.1 3.2 2 3.9 2 1 0 1.4 1.4 1.4 5 0 3.7-.4 5-1.4 5-.8 0-2.7 1.1-4.3 2.4-2.9 2.4-2.9 2.4-4.2.5-.6-1.1-2.5-2.5-4.1-3-2.4-.9-2.8-1.4-2.1-3.2.5-1.2.5-3.2 0-4.5-.7-1.8-.5-2.2 1-2.2 1 0 2.9-.9 4.2-2 3-2.4 2.6-2.4 5.6 0zM184.4 131.8c-1.4 4-2.4 5.6-3.4 5.3-.8-.2-3.7-.9-6.5-1.7-2.7-.7-5.1-1.1-5.4-.8-.2.2.9 1.9 2.5 3.7 6.2 6.6 6.1 6.3 1 11-2.5 2.4-4.4 4.6-4.1 4.9.5.5 8.1-1.3 11.7-2.7 1.8-.7 2.2.2 3.4 7 1.2 7.2 2.1 7.4 3.9 1 1-3.3 2.2-6.3 2.7-6.6.9-.6 3.2-.2 10.1 1.6 3.7 1 3.4-.3-1.4-5.3l-4.2-4.3 2.9-3.2c1.6-1.7 3.5-3.7 4.2-4.5 2-2.2.8-2.5-5.4-1.2-6.4 1.4-6.9 1.1-7.9-5.2-1-5.7-2.1-5.4-4.1 1zm7.5 7.4c2.2.3 2.5.8 2.5 5.5.1 4.5-.2 5.3-1.7 5.3-1.1 0-3 .9-4.3 1.9-2.5 1.9-2.5 1.9-4.9-.5-1.3-1.3-3-2.4-3.8-2.4-.9 0-1.3-1.5-1.4-5-.1-4.5.2-5 2.1-5 1.1 0 3-.7 4-1.5 1.7-1.3 2.2-1.3 3.5-.1.9.8 2.7 1.6 4 1.8zM100.5 177.5c-1 3-2.3 5.5-3 5.5-.6 0-3.5-.7-6.4-1.6-2.9-.8-5.5-1.3-5.8-1-.5.5 2.3 4 6 7.4.9.9 1.7 2 1.7 2.4 0 .5-2.1 2.9-4.7 5.3-5.3 4.9-4.7 5.4 3.6 2.9 2.9-.8 5.5-1.4 5.6-1.2.2.2.9 2.6 1.6 5.3 2.2 9.4 2.5 9.6 4.4 2.7 1-3.5 2.4-6.6 3.1-6.9.6-.2 3.6.3 6.5 1.1 2.9.9 5.7 1.6 6.2 1.6s-1-2.1-3.2-4.6c-2.3-2.6-4.1-5.1-4.1-5.7 0-.5 1.7-3 3.7-5.5l3.7-4.5-4 .7c-2.1.4-5.1.9-6.5 1.2-2.3.4-2.8.1-3.8-2.7-.6-1.8-1.1-4-1.1-5 0-4-1.9-2.6-3.5 2.6zm4.5 6c.7.8 2.2 1.5 3.4 1.5 1.9 0 2.1.5 2 5.2 0 4.8-.3 5.3-2.4 5.6-1.4.2-3.1 1.2-4 2.2-1.5 1.7-1.7 1.7-4.3-.6-1.6-1.3-3.4-2.4-4.2-2.4-.9 0-1.3-1.1-1.2-3.3 0-1.7-.3-4-.7-5-.7-1.4-.3-1.7 2.2-1.7 1.6 0 3.5-.7 4.2-1.5.7-.8 1.8-1.5 2.5-1.5s1.8.7 2.5 1.5zM184.5 177.5c-1 3-2.3 5.5-3 5.5-.6 0-3.5-.7-6.4-1.6-2.9-.8-5.5-1.3-5.8-1-.3.3 1.3 2.5 3.6 4.8 2.2 2.4 4.1 4.6 4.1 5 0 .4-2.1 2.7-4.6 5-2.5 2.3-4.1 4.4-3.5 4.6.6.2 3.6-.4 6.6-1.3 3.1-.8 6-1.3 6.4-1 .5.3 1.2 2.9 1.6 5.8 1.2 8.4 2.1 8.8 4.1 1.8.9-3.5 2.3-6.5 3-6.8.6-.2 3.6.3 6.5 1.1 2.9.9 5.4 1.6 5.6 1.6 1.1 0-.2-2.1-3.7-5.8l-4.1-4.4 4.3-5 4.3-5.1-3 .5c-10.8 2.2-10.1 2.3-11.4-1.3-.6-1.7-1.1-4-1.1-5 0-4-1.9-2.6-3.5 2.6zm8.1 7.5c1.7 0 2 .7 2 5.5 0 5-.2 5.5-2.2 5.5-1.2 0-2.7.7-3.4 1.5-1.7 2-3.3 1.9-5.5-.5-1-1.1-2.6-2-3.5-2-1.3 0-1.6-1-1.7-5-.1-4.5.1-5 2.2-5 1.2 0 3-.9 4-2l1.8-2 2.2 2c1.2 1.1 3 2 4.1 2zM8.1 196.2c.7 1.3 15.5 16.6 32.9 34C62.8 252.1 73.4 262 74.9 262s-7.1-9.2-31.8-34c-18.6-18.7-34.4-34-35-34-.9 0-.9.6 0 2.2zM186 222.4c-.5 1.5-1.3 3.8-1.6 5.2-.9 3.4-2.1 3.7-7.9 1.9-8.1-2.4-8.3-2-2.4 4.5l4.1 4.4-4.7 4.4c-2.5 2.4-4.4 4.7-4 5 .3.3 2.9-.2 5.9-1.1 2.9-.9 5.7-1.7 6.3-1.7.6 0 1.7 2.9 2.4 6.5s1.6 6.5 1.9 6.5c.4 0 1.5-2.7 2.6-6 1-3.3 2.2-6 2.6-6 .4 0 3.3.7 6.4 1.5 3.2.8 5.9 1.3 6.1 1.1.2-.2-1.4-2.3-3.6-4.7-2.3-2.4-4.1-4.7-4.1-5 0-.3 1.6-2.4 3.5-4.6 4.1-4.8 4.5-6.6 1.2-5.4-1.3.5-4 1.1-6.2 1.2-3.8.4-3.8.4-5.1-4.4-1.6-6.1-2.1-6.6-3.4-3.3zm3 9.1c.7.8 2.6 1.5 4.2 1.5 2.6 0 2.8.2 1.7 2.1-.6 1.2-.8 3.6-.4 5.5.5 3.1.4 3.4-1.8 3.4-1.3 0-3.2.9-4.2 2l-1.8 2-2.7-2.5c-1.4-1.4-3.3-2.5-4.1-2.5-1 0-1.4-1.3-1.5-5 0-4.5.2-5 2.2-5 1.2 0 2.7-.7 3.4-1.5.7-.8 1.8-1.5 2.5-1.5s1.8.7 2.5 1.5zM100.4 226.6c-2.1 6.5-2.3 6.6-10.2 4.3-4.5-1.2-6.7-.5-4.2 1.5.8.6 2.8 2.6 4.4 4.4l2.9 3.1-4.6 4.8c-2.5 2.6-4.5 4.9-4.3 5.1.4.3 5-.8 10.6-2.5.8-.2 1.7-.3 2-.2.9.5 3 7.3 3 9.6 0 4.6 1.9 3.1 3.6-2.7 1.5-5.4 1.9-6 4.3-6 1.4.1 4.4.7 6.6 1.5 2.1.8 4.1 1.2 4.3 1 .3-.2-1.4-2.6-3.7-5.4l-4.1-4.9 4-4.7c2.3-2.6 3.9-4.9 3.7-5.2-.3-.2-3.1.3-6.3 1.1-3.1.8-6.1 1.3-6.5 1-.4-.2-1-2.3-1.4-4.7-1.2-7.3-2.1-7.5-4.1-1.1zm8.8 8.4c1.5 0 1.7.5 1.2 2.7-.4 1.6-.8 3-1 3.2-.2.2.1 1.2.6 2.1.8 1.5.5 1.9-1.8 2.5-1.5.3-3.5 1.4-4.5 2.2-1.6 1.5-1.9 1.5-4-.5-1.3-1.2-3.4-2.2-4.6-2.2-1.8 0-2.2-.4-1.6-1.8 1-2.2 1-4.2 0-6.5-.5-1.3-.2-1.7 1.5-1.7 1.2 0 3.3-.9 4.7-2 2.5-2 2.5-2 5 0 1.4 1.1 3.4 2 4.5 2z"/>
</svg>
